<svg xmlns="http://www.w3.org/2000/svg" width="110" height="123" viewBox="0 0 110 123" fill="none">
<path fill-rule="evenodd" clip-rule="evenodd" d="M96.96 97.7394C95.73 97.7794 94.35 97.8294 93.87 97.8494C93.39 97.8694 93 97.8394 93 97.7994C93 97.6294 92.82 97.7894 92.11 98.6194C90.38 100.619 89.25 101.609 88.03 102.189C87.44 102.469 87.27 102.499 86.36 102.509C85.46 102.529 85.27 102.559 84.77 102.809C84.03 103.179 83.33 103.879 82.97 104.599C82.74 105.059 82.67 105.369 82.62 106.139C82.51 107.689 82.19 108.379 80.69 110.239C79.14 112.169 78.81 112.879 78.81 114.339C78.81 115.129 78.85 115.359 79.04 115.749C79.38 116.419 80.05 117.049 80.69 117.289C81.39 117.559 81.61 117.549 82.35 117.259L82.96 117.009L86.22 117.139L89.48 117.269L89.96 117.019C90.53 116.699 91.03 116.149 92.08 114.579C92.52 113.929 93.41 112.659 94.08 111.769C95.65 109.629 98.29 105.649 99.29 103.939C100.29 102.229 100.35 101.979 100.26 99.8594C100.23 98.9894 100.17 98.1394 100.14 97.9594C100.08 97.6494 100.06 97.6394 99.62 97.6594C99.39 97.6494 98.18 97.6994 96.96 97.7394ZM27.02 0.0994452C26.72 0.179445 26.08 0.469445 25.59 0.739445C24.03 1.59945 23.13 2.00945 22.62 2.09945C21.85 2.24945 21.33 2.49945 20.68 3.00945C19.96 3.57945 19.32 4.39945 18.92 5.22945C18.4 6.32945 17.31 7.04945 15.22 7.68945C13.4 8.24945 12.4 8.62945 11.88 8.92945C11.21 9.32945 9.09 11.1294 6.9 13.1494C4.43 15.4394 4.32 15.6394 3.65 18.9994C3.03 22.1494 2.67 23.0794 1.64 24.2794C0.93 25.0994 0.54 25.7894 0.23 26.7994C0.04 27.4294 0 27.7594 0 28.8794C0.01 30.3894 0.18 31.1894 0.8 32.5294C1.55 34.1294 2.41 36.4594 3.01 38.5294C3.44 40.0194 3.65 40.4694 4.51 41.7394C5.45 43.1494 7.68 45.9094 8.13 46.2194C8.86 46.7194 9.61 46.8794 11.2 46.8794C11.98 46.8794 12.76 46.8494 12.94 46.8094C13.41 46.7194 14.5 47.0294 15.8 47.5994C17.51 48.3594 17.65 48.3994 18.81 48.3894C19.58 48.3894 20.27 48.2994 21.51 48.0494L23.17 47.7194L23.68 47.9294C24.95 48.4494 25.61 48.5094 27.48 48.2894L28 48.2194L28.43 48.6794C28.69 48.9694 29.09 49.6194 29.46 50.3594C30.42 52.2894 31.17 52.8694 32.93 52.9894C34 53.0694 34.47 53.2594 35.16 53.8994C35.4 54.1194 35.71 54.5494 35.86 54.8594C36.1 55.3294 36.14 55.5194 36.13 56.1994C36.11 57.3194 35.89 58.0394 35 59.9094C34 61.9994 33.87 62.4694 33.87 63.6494C33.87 64.9894 34.06 65.4994 35.17 67.1394C36.8 69.5394 37.63 71.4994 37.85 73.4494C38.13 75.8894 38.47 82.1894 38.36 82.5894C38.11 83.4494 37.55 84.2494 35.69 86.3694C34.52 87.7094 34.18 88.3894 33.94 89.8294C33.54 92.2394 33.9 94.1094 35.63 98.6694C36.03 99.6994 36.4 100.789 36.47 101.089C36.55 101.429 36.62 102.899 36.67 104.989C36.76 108.909 36.72 108.729 37.93 111.559C39.25 114.619 39.63 116.179 39.42 117.679C39.36 118.089 39.34 118.639 39.37 118.909C39.5 120.059 40.5 121.349 41.48 121.659C41.78 121.759 42.6 121.829 43.76 121.869C46.19 121.959 46.97 122.079 47.18 122.389C47.54 122.919 47.73 122.939 51.27 122.769C53.04 122.679 55.31 122.619 56.32 122.629C57.94 122.649 58.25 122.619 59.02 122.419C61.05 121.899 63.23 120.739 65.86 118.789C67.59 117.509 68.78 116.249 69.47 115.019C70.15 113.779 70.77 113.279 72.43 112.639C73.97 112.049 74.74 111.469 75.1 110.639C75.29 110.209 75.33 109.869 75.39 108.209C75.48 105.989 75.57 105.659 76.3 104.949C77.41 103.869 78.74 103.209 81.87 102.169C84.56 101.279 84.95 101.109 85.52 100.589C86.56 99.6294 87.05 98.0394 87.47 94.3194C87.56 93.4694 87.56 92.7894 87.47 91.2594C87.2 86.5494 87.41 84.0794 88.28 81.9594C88.75 80.7794 89.69 79.6694 90.92 78.8094C91.22 78.5894 92.78 77.4494 94.38 76.2494C95.98 75.0494 97.97 73.6594 98.78 73.1494C101.93 71.1694 103.29 70.0894 104.45 68.6394C105.42 67.4394 107.92 63.2794 108.88 61.2794C109.36 60.2594 109.42 60.0894 109.37 59.6794C109.21 58.3794 107.89 57.2294 106.66 57.3594C106.4 57.3794 105.76 57.4894 105.25 57.5794C104.69 57.6894 103.84 57.7594 103.13 57.7594C102.12 57.7594 101.83 57.7194 101.15 57.4994C100.2 57.1894 99.52 56.7294 99.08 56.1094C98.69 55.5594 98.56 55.2094 98.03 53.3794C97.42 51.2094 97.3 51.0094 95.73 49.5394C94.53 48.4194 93.47 46.4994 92.85 44.2894C92.68 43.7094 92.31 42.8294 91.86 41.9694C91.01 40.3294 90.73 39.5294 90.73 38.7194C90.73 37.2494 90.22 35.5694 89.09 33.3094C88.29 31.7094 87.81 30.5294 87.57 29.6294C87.47 29.2494 86.97 27.7894 86.45 26.4094C85.44 23.6894 84.5 20.9394 84.32 20.1294C84.01 18.8294 82.68 18.1494 80.06 17.9694C78.21 17.8394 76.04 16.8994 72.06 14.5394L70.12 13.3894L66.3 12.9594C62.71 12.5594 62.47 12.5394 62.22 12.6794L61.95 12.8494L61.33 12.1394C60.16 10.8094 59 10.0294 57.83 9.80945C57.09 9.66945 56.58 9.38944 56.03 8.85944C55.04 7.88944 54.86 6.97945 55.35 5.54945C55.88 4.01945 55.87 3.34945 55.34 2.74945C55.04 2.39945 55.03 2.39945 54.23 2.39945C52.78 2.39945 51.85 2.23945 47.9 1.30945C45.48 0.739445 43.98 0.609445 42.52 0.849445C41.82 0.969445 41.6 0.949445 38.47 0.499445C36.65 0.239445 34.98 0.0394452 34.76 0.0394452C34.22 0.0294452 33.54 0.269445 32.53 0.839445L31.68 1.30945L31.02 1.15945C30.15 0.949445 29.51 0.709445 28.93 0.349445C28.33 -0.00055477 27.73 -0.0905548 27.02 0.0994452Z" fill="white"/>
</svg>